<svg xmlns="http://www.w3.org/2000/svg" width="335" height="509" viewBox="0 0 335 509" fill="none">
<mask id="path-1-inside-1_5503_37" fill="white">
<path fill-rule="evenodd" clip-rule="evenodd" d="M334.311 342.306V166.694C334.311 75.0103 259.627 0.685984 167.5 0.685984C75.3729 0.685984 0.6893 75.0103 0.6893 166.694V342.306C0.6893 433.99 75.3729 508.314 167.5 508.314C259.627 508.314 334.311 433.99 334.311 342.306ZM167.5 0C74.9924 0 0 74.6316 0 166.694V342.306C0 434.368 74.9924 509 167.5 509C260.008 509 335 434.368 335 342.306V166.694C335 74.6316 260.008 0 167.5 0Z"/>
</mask>
<path d="M335.311 342.306V166.694H333.311V342.306H335.311ZM335.311 166.694C335.311 74.4534 260.175 -0.314016 167.5 -0.314016V1.68598C259.079 1.68598 333.311 75.5671 333.311 166.694H335.311ZM167.5 -0.314016C74.8252 -0.314016 -0.3107 74.4534 -0.3107 166.694H1.6893C1.6893 75.5671 75.9207 1.68598 167.5 1.68598V-0.314016ZM-0.3107 166.694V342.306H1.6893V166.694H-0.3107ZM-0.3107 342.306C-0.3107 434.547 74.8252 509.314 167.5 509.314V507.314C75.9207 507.314 1.6893 433.433 1.6893 342.306H-0.3107ZM167.5 509.314C260.175 509.314 335.311 434.547 335.311 342.306H333.311C333.311 433.433 259.079 507.314 167.5 507.314V509.314ZM167.5 -1C74.4447 -1 -1 74.0748 -1 166.694H1C1 75.1884 75.5402 1 167.5 1V-1ZM-1 166.694V342.306H1V166.694H-1ZM-1 342.306C-1 434.925 74.4447 510 167.5 510V508C75.5402 508 1 433.812 1 342.306H-1ZM167.5 510C260.555 510 336 434.925 336 342.306H334C334 433.812 259.46 508 167.5 508V510ZM336 342.306V166.694H334V342.306H336ZM336 166.694C336 74.0748 260.555 -1 167.5 -1V1C259.46 1 334 75.1884 334 166.694H336Z" fill="url(#paint0_linear_5503_37)" mask="url(#path-1-inside-1_5503_37)"/>
<defs>
<linearGradient id="paint0_linear_5503_37" x1="177.84" y1="517.918" x2="177.157" y2="117.303" gradientUnits="userSpaceOnUse">
<stop stop-color="white"/>
<stop offset="0.411317" stop-color="white" stop-opacity="0.441769"/>
<stop offset="1" stop-color="white" stop-opacity="0"/>
</linearGradient>
</defs>
</svg>