<svg width="24" height="24" viewBox="0 0 24 24" fill="none" xmlns="http://www.w3.org/2000/svg">
<g opacity="0.8">
<path fill-rule="evenodd" clip-rule="evenodd" d="M18.1801 4.49988C17.1601 4.43988 15.0601 4.37988 11.8801 4.37988H11.4601C8.40012 4.37988 6.36015 4.43988 5.34015 4.55988C3.96015 4.67988 3.00012 5.03988 2.46012 5.51988C1.98012 5.93988 1.62013 6.71988 1.50013 7.73988C1.44013 8.39988 1.38013 9.77988 1.38013 11.8799V12.1799C1.38013 14.1599 1.44012 15.5399 1.56012 16.1999C1.74012 17.1599 2.04015 17.8799 2.64015 18.2999C3.24015 18.7799 4.26013 19.0799 5.70013 19.1999C6.72013 19.2599 8.82013 19.3199 12.0001 19.3199H12.4201C15.4801 19.3199 17.5201 19.2599 18.5401 19.1399C19.9201 19.0199 20.8801 18.6599 21.4201 18.1799C21.9001 17.7599 22.2601 16.9799 22.3801 15.9599C22.4401 15.2999 22.5001 13.9199 22.5001 11.8199V11.5199C22.5001 9.53988 22.4401 8.15988 22.3201 7.49988C22.1401 6.53988 21.8401 5.81988 21.2401 5.39988C20.6401 4.91988 19.6201 4.61988 18.1801 4.49988ZM15.8401 11.8799L9.24015 15.8399V7.91988L15.8401 11.8799Z" fill="#AE1332"/>
</g>
</svg>
